# xmcd
#
# Track frame offsets:
#	150
#	8927
#	27178
#	58155
#	86204
#	125842
#	164536
#	185915
#	216220
#	242842
#
# Disc length: 3679 seconds
#
# Revision: 0
# Processed by: cddbd v1.5.2PL0 Copyright (c) Steve Scherf et al.
# Submitted via: EasyCDDAExtractor 10.0.2.1
#
DISCID=960e5d0a
DTITLE=Heaven And Hell - Mohegan Sun Arena Uncasville CT 07-09-07 Master Disc 
DTITLE=1
DYEAR=2007
DGENRE=Hard Rock
TTITLE0=E5150
TTITLE1=The Mob Rules
TTITLE2=Children Of The Sea
TTITLE3=I
TTITLE4=The Sign Of The Southern Cross
TTITLE5=Voodoo
TTITLE6=Drum Solo
TTITLE7=Computer God
TTITLE8=Falling Off The Edge Of The World
TTITLE9=Die Young
EXTD=
EXTT0=
EXTT1=
EXTT2=
EXTT3=
EXTT4=
EXTT5=
EXTT6=
EXTT7=
EXTT8=
EXTT9=
PLAYORDER=
